<?xml version="1.0" encoding="UTF-8"?>
<svg version="1.1" xmlns="http://www.w3.org/2000/svg" width="32" height="32">
<path d="M0 0 C10.56 0 21.12 0 32 0 C32 10.56 32 21.12 32 32 C21.44 32 10.88 32 0 32 C0 21.44 0 10.88 0 0 Z " fill="#080808" transform="translate(0,0)"/>
<path d="M0 0 C1.15757813 -0.00257812 2.31515625 -0.00515625 3.5078125 -0.0078125 C4.72210938 -0.00007812 5.93640625 0.00765625 7.1875 0.015625 C8.40179687 0.00789062 9.61609375 0.00015625 10.8671875 -0.0078125 C12.60355469 -0.00394531 12.60355469 -0.00394531 14.375 0 C15.44105469 0.00225586 16.50710937 0.00451172 17.60546875 0.00683594 C20.1875 0.265625 20.1875 0.265625 22.1875 2.265625 C22.3828125 5.0859375 22.3828125 5.0859375 22.3125 8.390625 C22.29445313 9.48632812 22.27640625 10.58203125 22.2578125 11.7109375 C22.23460938 12.55398437 22.21140625 13.39703125 22.1875 14.265625 C21.1975 14.595625 20.2075 14.925625 19.1875 15.265625 C18.8575 13.285625 18.5275 11.305625 18.1875 9.265625 C17.59582031 9.71035156 17.00414063 10.15507812 16.39453125 10.61328125 C15.20923828 11.46212891 15.20923828 11.46212891 14 12.328125 C13.22269531 12.89660156 12.44539063 13.46507812 11.64453125 14.05078125 C8.57205546 15.5699227 7.39764804 15.34904996 4.1875 14.265625 C1.08058207 12.75909087 -1.82424588 11.00505651 -4.8125 9.265625 C-4.8125 13.225625 -4.8125 17.185625 -4.8125 21.265625 C-0.5225 21.265625 3.7675 21.265625 8.1875 21.265625 C8.1875 22.255625 8.1875 23.245625 8.1875 24.265625 C5.89608714 24.31947021 3.60431812 24.35834587 1.3125 24.390625 C0.03632813 24.41382812 -1.23984375 24.43703125 -2.5546875 24.4609375 C-5.8125 24.265625 -5.8125 24.265625 -7.8125 22.265625 C-8.07128906 20.234375 -8.07128906 20.234375 -8.078125 17.765625 C-8.08070312 16.87875 -8.08328125 15.991875 -8.0859375 15.078125 C-8.07433594 13.6859375 -8.07433594 13.6859375 -8.0625 12.265625 C-8.07023438 11.3375 -8.07796875 10.409375 -8.0859375 9.453125 C-8.08335938 8.56625 -8.08078125 7.679375 -8.078125 6.765625 C-8.07586914 5.9509375 -8.07361328 5.13625 -8.07128906 4.296875 C-7.45746268 -0.52108302 -4.00066469 0.00846574 0 0 Z " fill="#F3F3F3" transform="translate(8.8125,3.734375)"/>
<path d="M0 0 C0 2.31 0 4.62 0 7 C1.32 6.67 2.64 6.34 4 6 C3.79692286 10.26461992 2.91504038 12.43248951 -0.0625 15.375 C-1.031875 16.24125 -2.00125 17.1075 -3 18 C-5.49361571 16.79618552 -7.68143083 15.54571278 -10 14 C-10.33 14.66 -10.66 15.32 -11 16 C-11 15.01 -11 14.02 -11 13 C-15.29 13 -19.58 13 -24 13 C-24 9.04 -24 5.08 -24 1 C-19 3 -19 3 -16.5 4.6875 C-14.1293511 6.17915473 -14.1293511 6.17915473 -11.6875 6 C-8.36981584 4.76551287 -5.61422992 3.01094579 -2.671875 1.05859375 C-1 0 -1 0 0 0 Z " fill="#0B0B0A" transform="translate(28,12)"/>
<path d="M0 0 C7.92 0 15.84 0 24 0 C24 0.66 24 1.32 24 2 C21.76953125 3.796875 21.76953125 3.796875 18.8125 5.75 C17.84957031 6.40484375 16.88664062 7.0596875 15.89453125 7.734375 C13 9 13 9 10.40625 8.359375 C9.6121875 7.91078125 8.818125 7.4621875 8 7 C7.26136719 6.5978125 6.52273437 6.195625 5.76171875 5.78125 C5.07722656 5.3584375 4.39273437 4.935625 3.6875 4.5 C2.99011719 4.0771875 2.29273438 3.654375 1.57421875 3.21875 C1.05472656 2.8165625 0.53523437 2.414375 0 2 C0 1.34 0 0.68 0 0 Z " fill="#0A0A0A" transform="translate(4,7)"/>
<path d="M0 0 C0.99 0.33 1.98 0.66 3 1 C1.55746343 4.36591866 -0.33264727 6.51047079 -3 9 C-4.9375 8.25 -4.9375 8.25 -7 7 C-7.75 4.875 -7.75 4.875 -8 3 C-6.8553125 3.0928125 -6.8553125 3.0928125 -5.6875 3.1875 C-2.95474688 3.25898085 -2.95474688 3.25898085 -1.1875 1.5 C-0.795625 1.005 -0.40375 0.51 0 0 Z " fill="#B3E000" transform="translate(28,21)"/>
</svg>
